<svg width="100%" height="100%" viewBox="0 0 356 127" fill="none" xmlns="http://www.w3.org/2000/svg">
<g clip-path="url(#clip0_37_198)">
<path d="M17.5468 122.327C11.5771 119.69 7.18859 116.531 4.38139 112.85C1.39651 109.342 1.18902e-05 106.358 1.18902e-05 103.725C-0.0404809 103.193 0.0501033 102.659 0.263835 102.17C0.477567 101.681 0.807916 101.252 1.22594 100.921C1.56855 100.572 1.97903 100.298 2.43194 100.115C2.88484 99.9314 3.37055 99.8429 3.85903 99.8548H18.2504C18.7372 99.8907 19.2099 100.035 19.634 100.276C20.0582 100.518 20.4231 100.851 20.7023 101.251C21.2353 101.784 22.6318 102.84 24.7425 104.588C26.7804 106.405 29.1723 107.781 31.7676 108.628C34.502 109.707 37.4205 110.243 40.3598 110.206C45.1036 110.206 48.7814 109.332 51.7663 107.402C53.1447 106.65 54.286 105.528 55.0619 104.163C55.8377 102.797 56.2175 101.243 56.1584 99.6736C56.1916 97.5809 55.511 95.5393 54.2288 93.8851C52.1284 92.0652 49.6804 90.6907 47.0331 89.8448C43.5259 88.6189 38.2598 87.393 31.4159 85.8152C21.4059 83.6832 14.2102 80.5491 9.477 76.157C4.74383 71.765 2.28131 66.1577 2.28131 58.962C2.31165 54.1862 3.79933 49.5335 6.54542 45.626C9.77771 41.1848 14.1291 37.6795 19.1565 35.4667C24.6039 32.8337 31.2666 31.6077 38.9847 31.6077C46.0092 31.4467 52.9946 32.6973 59.527 35.2855C65.3155 37.9186 69.7076 40.9035 72.6818 44.4107C75.656 47.918 77.0738 51.084 77.0738 53.7171C77.0857 54.2056 76.9972 54.6913 76.8139 55.1442C76.6305 55.5971 76.3562 56.0076 76.0078 56.3502C75.6537 56.7411 75.2207 57.0525 74.7374 57.2638C74.2542 57.4752 73.7316 57.5816 73.2041 57.5761H60.0174C59.4454 57.5854 58.8789 57.4633 58.3614 57.2194C57.844 56.9755 57.3894 56.6161 57.0325 56.169C55.6722 55.1491 54.3829 54.0379 53.1735 52.843C51.3425 51.2856 49.2681 50.0395 47.0331 49.1545C44.4502 48.1885 41.7101 47.7113 38.9527 47.7474C34.5713 47.7474 31.2346 48.6322 28.9533 50.5617C27.8471 51.442 26.9562 52.563 26.3484 53.8395C25.7406 55.116 25.432 56.5143 25.4461 57.928C25.3497 59.8402 25.9734 61.7192 27.1944 63.1941C28.2604 64.6013 30.5311 65.8272 33.8677 67.0532C38.8391 68.765 43.9456 70.0559 49.1332 70.9122C70.1979 74.9524 80.7303 84.2588 80.7303 98.469C80.7303 106.72 77.2124 113.564 70.07 118.649C62.9276 123.734 52.7044 126.378 39.8908 126.378C30.8828 126.367 23.5166 125.013 17.5468 122.327Z" fill="#890CBD"/>
<path d="M96.0812 123.382C95.6735 123.002 95.3528 122.539 95.1412 122.024C94.9296 121.509 94.832 120.954 94.8552 120.397V4.20009C94.8274 3.61124 94.922 3.02302 95.133 2.47256C95.344 1.92211 95.6668 1.42138 96.0812 1.00201C96.9093 0.288431 97.9732 -0.0915556 99.066 -0.0640179H113.809C114.39 -0.155094 114.984 -0.107655 115.543 0.0744245C116.102 0.256504 116.61 0.568072 117.026 0.983743C117.441 1.39941 117.753 1.90741 117.935 2.46635C118.117 3.02529 118.164 3.61934 118.073 4.20009V120.397C118.099 121.49 117.719 122.553 117.007 123.382C116.588 123.796 116.087 124.119 115.537 124.33C114.986 124.541 114.398 124.636 113.809 124.608H99.1087C98.545 124.638 97.9816 124.544 97.4584 124.332C96.9352 124.12 96.465 123.796 96.0812 123.382Z" fill="#890CBD"/>
<path d="M135.353 123.382C134.946 123.002 134.625 122.539 134.414 122.024C134.202 121.509 134.104 120.954 134.128 120.397V40.541C134.1 39.9522 134.194 39.3639 134.405 38.8135C134.616 38.263 134.939 37.7623 135.353 37.3429C136.184 36.6329 137.246 36.2534 138.338 36.2769H153.263C153.816 36.2755 154.364 36.3834 154.876 36.5946C155.387 36.8057 155.852 37.1158 156.243 37.5071C156.635 37.8984 156.945 38.3631 157.156 38.8746C157.367 39.3861 157.475 39.9343 157.474 40.4877V120.344C157.475 120.897 157.367 121.445 157.156 121.957C156.945 122.468 156.635 122.933 156.243 123.324C155.852 123.716 155.387 124.026 154.876 124.237C154.364 124.448 153.816 124.556 153.263 124.555H138.338C137.786 124.583 137.234 124.493 136.719 124.291C136.204 124.089 135.739 123.779 135.353 123.382Z" fill="#890CBD"/>
<path d="M184.22 115.653C176.492 108.458 172.494 98.5969 171.929 85.9965L171.759 78.982L171.929 71.9569C172.462 59.3245 176.492 49.4957 184.22 42.3C191.768 35.1043 202.119 31.6397 214.933 31.6397C224.228 31.6397 231.989 33.2174 238.449 36.5541C244.76 39.8801 249.504 43.7498 252.659 48.4829C255.644 53.2268 257.403 57.7894 257.574 62.1707C257.671 62.718 257.623 63.2811 257.437 63.8046C257.25 64.328 256.929 64.7936 256.508 65.1556C256.088 65.5699 255.588 65.8928 255.037 66.1038C254.487 66.3148 253.899 66.4094 253.31 66.3816H237.746C236.736 66.4439 235.738 66.1328 234.942 65.5074C234.157 64.7136 233.556 63.7563 233.183 62.7037C231.424 58.3117 229.143 54.975 226.339 53.0455C223.024 50.9938 219.182 49.9563 215.284 50.0607C209.315 50.0607 204.752 51.9902 201.426 55.6786C198.1 59.3671 196.16 65.1556 195.989 72.8737L195.808 79.3764L195.989 85.165C196.693 100.43 203.185 107.978 215.295 107.978C219.198 108.131 223.055 107.09 226.35 104.993C229.153 103.064 231.435 99.9081 233.194 95.3455C233.545 94.2797 234.149 93.3143 234.953 92.5312C235.748 91.9058 236.746 91.5947 237.756 91.6571H253.363C253.952 91.6292 254.54 91.7238 255.09 91.9348C255.641 92.1458 256.142 92.4687 256.561 92.883C256.983 93.245 257.303 93.7107 257.49 94.2341C257.677 94.7575 257.724 95.3206 257.627 95.8679C257.457 99.9081 255.698 104.29 252.713 109.033C249.728 113.777 244.995 117.977 238.673 121.314C232.352 124.651 224.463 126.41 214.986 126.41C202.119 126.367 191.768 122.881 184.22 115.653Z" fill="#890CBD"/>
<path d="M281.581 115.131C273.863 107.584 269.854 97.0085 269.3 83.1502L269.119 78.7581C269.119 64.1962 272.978 52.6084 280.707 44.1868C288.254 35.7652 298.957 31.5544 312.464 31.5544C326.322 31.5544 337.217 35.7652 344.764 44.1868C352.312 52.6084 356.021 63.887 356.021 77.9266V81.6151C356.045 82.17 355.947 82.7233 355.735 83.2368C355.524 83.7503 355.203 84.2118 354.796 84.5893C354.379 85.0087 353.88 85.3357 353.328 85.5488C352.777 85.7619 352.188 85.8563 351.597 85.8259H293.339V87.2224C293.335 93.0557 295.245 98.7293 298.776 103.373C302.112 107.765 306.675 109.865 312.464 109.865C315.635 109.935 318.776 109.238 321.619 107.833C324.463 106.428 326.925 104.357 328.795 101.795C329.518 100.886 330.341 100.06 331.247 99.3324C332.22 99.0738 333.225 98.9553 334.232 98.9806H349.679C350.678 99.0028 351.651 99.3098 352.482 99.8655C352.842 100.16 353.127 100.536 353.312 100.962C353.498 101.389 353.579 101.853 353.548 102.317C353.548 105.132 351.971 108.458 348.634 112.146C345.297 116.005 340.383 119.342 334.243 122.156C327.434 125.096 320.07 126.532 312.655 126.367C299.522 126.367 289.128 122.678 281.581 115.131ZM331.769 70.5497C331.769 63.7058 330.021 58.0985 326.684 53.877C324.922 51.8574 322.731 50.2577 320.27 49.1952C317.809 48.1327 315.142 47.6344 312.464 47.7367C306.504 47.7367 301.803 49.8687 298.424 53.877C295.098 58.1411 293.339 63.7058 293.339 70.5497V70.9015H331.769V70.5497Z" fill="#890CBD"/>
<path d="M140.62 17.5041C142.916 19.8064 145.644 21.632 148.648 22.8761C151.652 24.1201 154.872 24.7581 158.124 24.7531V-6.10352e-05H133.371C133.367 3.25119 134.005 6.47118 135.249 9.47504C136.493 12.4789 138.318 15.2075 140.62 17.5041Z" fill="#890CBD"/>
</g>
<defs>
<clipPath id="clip0_37_198">
<rect width="356" height="126.356" fill="white"/>
</clipPath>
</defs>
</svg>
